<?xml version="1.0" encoding="UTF-8" standalone="no" ?>
<!DOCTYPE svg PUBLIC "-//W3C//DTD SVG 1.1//EN" "http://www.w3.org/Graphics/SVG/1.1/DTD/svg11.dtd">
<svg xmlns="http://www.w3.org/2000/svg" xmlns:xlink="http://www.w3.org/1999/xlink" version="1.1" width="500" height="500" viewBox="0 0 500 500" xml:space="preserve">
<desc>Created with Fabric.js 3.6.3</desc>
<defs>
</defs>
<g transform="matrix(4.161451932355623 -1.01926e-15 1.01926e-15 4.161451932355623 100.7950243691952 250.61452485959853)"  >
<linearGradient id="SVGID_76032" gradientUnits="userSpaceOnUse" gradientTransform="matrix(1 0 0 1 3.9983616726057942 1.9999986696849152)"  x1="0" y1="0" x2="16.001638327394204" y2="20.000002660630166">
<stop offset="0%" style="stop-color:rgb(0,221,255);stop-opacity: 1"/>
<stop offset="100%" style="stop-color:rgb(255,0,212);stop-opacity: 1"/>
</linearGradient>
<path style="stroke: none; stroke-width: 0; stroke-dasharray: none; stroke-linecap: butt; stroke-dashoffset: 0; stroke-linejoin: miter; stroke-miterlimit: 4; fill: url(#SVGID_76032); fill-rule: nonzero; opacity: 1;"  transform=" translate(-11.999180836302896, -11.999999999999998)" d="M 19 7 a 1 1 0 0 0 1 -1 V 3 a 1 1 0 0 0 -1 -1 H 5 a 1 1 0 0 0 -0.77 1.64 l 7 8.36 l -7 8.36 A 1 1 0 0 0 5 22 H 19 a 1 1 0 0 0 1 -1 V 18 a 1 1 0 0 0 -2 0 v 2 H 7.14 l 6.13 -7.36 a 1 1 0 0 0 0 -1.28 L 7.14 4 H 18 V 6 A 1 1 0 0 0 19 7 Z" stroke-linecap="round" />
</g>
<g transform="matrix(1 0 0 1 260.9024721154676 252.86437627942286)" style=""  ><path fill="#7B52AB" opacity="1" d="M-118.79-7.01C-118.00-7.76-117.29-8.51-117.29-10.02L-117.29-13.23C-117.29-13.98-117.85-14.55-118.61-14.55L-141.60-14.55C-142.36-14.55-142.92-13.98-142.92-13.23L-142.92-9.46C-142.92-8.70-142.36-8.14-141.60-8.14L-128.60-8.14L-128.60-7.76L-141.79 4.30C-142.54 5.02-143.30 5.81-143.30 7.32L-143.30 10.52C-143.30 11.28-142.73 11.84-141.98 11.84L-118.23 11.84C-117.47 11.84-116.91 11.28-116.91 10.52L-116.91 6.75C-116.91 6.00-117.47 5.43-118.23 5.43L-131.99 5.43L-131.99 5.06Z"/><path fill="#7B52AB" opacity="1" d="M-87.50-13.23C-87.50-13.98-88.07-14.55-88.82-14.55L-111.82-14.55C-112.57-14.55-113.14-13.98-113.14-13.23L-113.14 10.52C-113.14 11.28-112.57 11.84-111.82 11.84L-88.82 11.84C-88.07 11.84-87.50 11.28-87.50 10.52L-87.50 6.75C-87.50 6.00-88.07 5.43-88.82 5.43L-104.84 5.43L-104.84 1.66L-92.97 1.66C-92.22 1.66-91.65 1.10-91.65 0.34L-91.65-3.43C-91.65-4.18-92.22-4.74-92.97-4.74L-104.84-4.74L-104.84-8.14L-88.82-8.14C-88.07-8.14-87.50-8.70-87.50-9.46Z"/><path fill="#7B52AB" opacity="1" d="M-64.13 0.53L-73.55-13.23C-73.93-13.79-74.68-14.55-75.63-14.55L-82.04-14.55C-82.79-14.55-83.36-13.98-83.36-13.23L-83.36 10.52C-83.36 11.28-82.79 11.84-82.04 11.84L-76.38 11.84C-75.63 11.84-75.06 11.28-75.06 10.52L-75.06-3.24L-74.68-3.24L-65.26 10.52C-64.88 11.09-64.13 11.84-63.19 11.84L-56.78 11.84C-56.02 11.84-55.46 11.28-55.46 10.52L-55.46-13.23C-55.46-13.98-56.02-14.55-56.78-14.55L-62.43-14.55C-63.19-14.55-63.75-13.98-63.75-13.23L-63.75 0.53Z"/><path fill="#7B52AB" opacity="1" d="M-35.48 6.38C-39.62 6.38-42.26 3.74-42.26-1.35C-42.26-6.44-39.62-9.08-35.48-9.08C-31.33-9.08-28.69-6.44-28.69-1.35C-28.69 3.74-31.33 6.38-35.48 6.38ZM-35.48-15.30C-45.47-15.30-50.93-9.83-50.93-1.35C-50.93 7.13-45.47 12.60-35.48 12.60C-25.49 12.60-20.02 7.13-20.02-1.35C-20.02-9.83-25.49-15.30-35.48-15.30Z"/><path fill="#7B52AB" opacity="1" d="M12.03-13.23C12.03-13.98 11.46-14.55 10.71-14.55L5.05-14.55C4.30-14.55 3.73-13.98 3.73-13.23L3.73-4.37L-7.20-4.37L-7.20-13.23C-7.20-13.98-7.77-14.55-8.52-14.55L-14.18-14.55C-14.93-14.55-15.50-13.98-15.50-13.23L-15.50 10.52C-15.50 11.28-14.93 11.84-14.18 11.84L-8.52 11.84C-7.77 11.84-7.20 11.28-7.20 10.52L-7.20 2.04L3.73 2.04L3.73 10.52C3.73 11.28 4.30 11.84 5.05 11.84L10.71 11.84C11.46 11.84 12.03 11.28 12.03 10.52Z"/><path fill="#7B52AB" opacity="1" d="M43.32-13.23C43.32-13.98 42.75-14.55 42.00-14.55L19.00-14.55C18.25-14.55 17.68-13.98 17.68-13.23L17.68 10.52C17.68 11.28 18.25 11.84 19.00 11.84L42.00 11.84C42.75 11.84 43.32 11.28 43.32 10.52L43.32 6.75C43.32 6.00 42.75 5.43 42.00 5.43L25.97 5.43L25.97 1.66L37.85 1.66C38.60 1.66 39.17 1.10 39.17 0.34L39.17-3.43C39.17-4.18 38.60-4.74 37.85-4.74L25.97-4.74L25.97-8.14L42.00-8.14C42.75-8.14 43.32-8.70 43.32-9.46Z"/><path fill="#7B52AB" opacity="1" d="M67.93 10.52C68.24 11.28 68.88 11.84 69.63 11.84L76.04 11.84C76.79 11.84 77.32 11.28 76.98 10.52L66.43-13.27C66.09-14.02 65.48-14.55 64.73-14.55L57.00-14.55C56.25-14.55 55.64-13.98 55.30-13.23L44.75 10.52C44.41 11.28 44.94 11.84 45.69 11.84L51.72 11.84C52.48 11.84 53.12 11.28 53.42 10.52L54.74 7.13L66.61 7.13ZM60.58-6.63L60.96-6.63L63.98 0.91L57.38 0.91Z"/><path fill="#7B52AB" opacity="1" d="M103.67 6.75C103.67 6.00 103.11 5.43 102.35 5.43L88.22 5.43L88.22-13.23C88.22-13.98 87.65-14.55 86.90-14.55L81.24-14.55C80.49-14.55 79.92-13.98 79.92-13.23L79.92 10.52C79.92 11.28 80.49 11.84 81.24 11.84L102.35 11.84C103.11 11.84 103.67 11.28 103.67 10.52Z"/></g></svg>